<svg xmlns="http://www.w3.org/2000/svg" viewBox="0 0 256 256">
  <defs>
    <linearGradient id="g1" x1="0" x2="1" y1="0" y2="1">
      <stop offset="0" stop-color="#1976d2"/>
      <stop offset="1" stop-color="#0f3f7a"/>
    </linearGradient>
    <linearGradient id="g2" x1="1" x2="0" y1="0" y2="1">
      <stop offset="0" stop-color="#4da3ff"/>
      <stop offset="1" stop-color="#1976d2"/>
    </linearGradient>
    <linearGradient id="g3" x1="0" x2="1" y1="1" y2="0">
      <stop offset="0" stop-color="#2f5ea8"/>
      <stop offset="1" stop-color="#72b7ff"/>
    </linearGradient>
    <linearGradient id="g4" x1="0" x2="1" y1="0" y2="1">
      <stop offset="0" stop-color="#0e2a4f"/>
      <stop offset="1" stop-color="#1976d2"/>
    </linearGradient>
  </defs>
  <rect width="256" height="256" rx="56" fill="#0d0f14"/>
  <g transform="translate(26 26) scale(0.85)" fill="none" stroke="#0d0f14" stroke-width="4">
    <g fill="url(#g1)">
      <polygon points="96,28 122,43 122,73 96,88 70,73 70,43"/>
      <polygon points="152,60 178,75 178,105 152,120 126,105 126,75"/>
      <polygon points="208,92 234,107 234,137 208,152 182,137 182,107"/>
    </g>
    <g fill="url(#g2)">
      <polygon points="124,108 150,123 150,153 124,168 98,153 98,123"/>
      <polygon points="68,76 94,91 94,121 68,136 42,121 42,91"/>
      <polygon points="180,140 206,155 206,185 180,200 154,185 154,155"/>
    </g>
    <g fill="url(#g3)">
      <polygon points="96,188 122,203 122,233 96,248 70,233 70,203"/>
      <polygon points="152,156 178,171 178,201 152,216 126,201 126,171"/>
    </g>
    <g fill="url(#g4)">
      <polygon points="40,140 66,155 66,185 40,200 14,185 14,155"/>
      <polygon points="124,44 150,59 150,89 124,104 98,89 98,59"/>
    </g>
  </g>
</svg>
